# xmcd
#
# Track frame offsets: 
#        150
#        12620
#        23267
#        34575
#        47563
#        56947
#        71403
#        82820
#        94022
#        105820
#        115943
#        125901
#        138437
#        149446
#        160511
#        171737
#        182046
#        193574
#
# Disc length: 2739 seconds
#
# Revision: 2
# Processed by: cddbd v1.5.2PL0 Copyright (c) Steve Scherf et al.
# Submitted via: ExactAudioCopyFreeDBPlugin 1.0
#
DISCID=ef0ab112
DTITLE=Patsy Cline - Crazy Dreams
DYEAR=2001
DGENRE=Country
TTITLE0=A Poor Man's Roses
TTITLE1=I Can See an Angel
TTITLE2=Crazy Dreams
TTITLE3=If I Could See the World (Through the Eyes of a Child)
TTITLE4=Come On In (and Make Yourself at Home)
TTITLE5=Then You'll Know
TTITLE6=The Heart You Break May Be Your Own
TTITLE7=Hungry For Love
TTITLE8=Today, Tomorrow and Forever
TTITLE9=Threes Cigarettes in an Ashtray
TTITLE10=Turn the Cards Slowly
TTITLE11=Fingerprints
TTITLE12=Stop the World (and Let Me Off)
TTITLE13=Hidin' Out
TTITLE14=Cry Not For Me
TTITLE15=Pick Me Up On Your Way Down
TTITLE16=In Care of the Blues
TTITLE17=If I Could Only Stay Asleep
EXTD=Elap Cat: 50173652 Bar: 5706238310410
EXTT0=
EXTT1=
EXTT2=
EXTT3=
EXTT4=
EXTT5=
EXTT6=
EXTT7=
EXTT8=
EXTT9=
EXTT10=
EXTT11=
EXTT12=
EXTT13=
EXTT14=
EXTT15=
EXTT16=
EXTT17=
PLAYORDER=
